<svg width="9" height="18" viewBox="0 0 9 18" fill="none" xmlns="http://www.w3.org/2000/svg">
<path d="M7.50759 17.1645C7.7779 17.165 8.03986 17.0703 8.24799 16.8967C8.36514 16.799 8.46197 16.679 8.53295 16.5436C8.60392 16.4081 8.64765 16.2599 8.66162 16.1075C8.67559 15.955 8.65953 15.8012 8.61436 15.655C8.56919 15.5088 8.4958 15.373 8.39839 15.2554L3.21559 9.01589L8.21329 2.76475C8.30938 2.64567 8.38115 2.50867 8.42445 2.3616C8.46775 2.21453 8.48174 2.0603 8.46562 1.90777C8.44949 1.75524 8.40357 1.60742 8.33048 1.47281C8.2574 1.3382 8.1586 1.21945 8.03976 1.12339C7.92006 1.01741 7.77988 0.937476 7.62803 0.888598C7.47618 0.839719 7.31592 0.822952 7.15732 0.839348C6.99872 0.855744 6.8452 0.904949 6.7064 0.983876C6.56759 1.0628 6.4465 1.16975 6.35072 1.298L0.763011 8.28251C0.592855 8.4908 0.499836 8.75207 0.499836 9.02171C0.499836 9.29134 0.592855 9.55261 0.763011 9.7609L6.54739 16.7454C6.66344 16.8863 6.81087 16.9976 6.9777 17.0705C7.14453 17.1433 7.32607 17.1755 7.50759 17.1645Z" fill="#5962CE"/>
</svg>
